<svg xmlns="http://www.w3.org/2000/svg" width="1024" height="1024" viewBox="0 0 1024 1024">
  <path d="M 712,465 L 712,521 L 713,522 L 713,527 L 714,528 L 714,531 L 715,532 L 715,533 L 716,534 L 716,535 L 717,536 L 717,537 L 721,541 L 721,542 L 722,542 L 725,545 L 726,545 L 727,546 L 728,546 L 729,547 L 731,547 L 732,548 L 735,548 L 736,549 L 752,549 L 753,548 L 760,548 L 761,547 L 763,547 L 764,546 L 765,546 L 766,545 L 768,545 L 769,544 L 770,544 L 772,542 L 773,542 L 778,537 L 778,536 L 780,534 L 780,533 L 781,532 L 781,531 L 782,530 L 782,528 L 783,527 L 783,523 L 784,522 L 784,465 L 766,465 L 766,515 L 765,516 L 765,519 L 764,520 L 764,522 L 761,525 L 761,526 L 760,527 L 759,527 L 756,530 L 754,530 L 753,531 L 751,531 L 750,532 L 746,532 L 745,531 L 742,531 L 741,530 L 740,530 L 739,529 L 738,529 L 734,525 L 734,524 L 733,523 L 733,522 L 732,521 L 732,518 L 731,517 L 731,465 Z" fill="black"/>
  <path d="M 449,465 L 449,547 L 468,547 L 468,465 Z" fill="black"/>
  <path d="M 317,465 L 317,468 L 318,469 L 318,470 L 319,471 L 319,474 L 320,475 L 320,477 L 321,478 L 321,480 L 322,481 L 322,482 L 323,483 L 323,485 L 324,486 L 324,488 L 325,489 L 325,491 L 326,492 L 326,494 L 327,495 L 327,497 L 328,498 L 328,500 L 329,501 L 329,503 L 330,504 L 330,506 L 331,507 L 331,509 L 332,510 L 332,512 L 333,513 L 333,515 L 334,516 L 334,518 L 335,519 L 335,522 L 336,523 L 336,525 L 337,526 L 337,527 L 338,528 L 338,530 L 339,531 L 339,533 L 340,534 L 340,536 L 341,537 L 341,539 L 342,540 L 342,542 L 343,543 L 343,545 L 344,546 L 344,547 L 358,547 L 359,546 L 359,544 L 360,543 L 360,541 L 361,540 L 361,538 L 362,537 L 362,536 L 363,535 L 363,532 L 364,531 L 364,529 L 365,528 L 365,526 L 366,525 L 366,523 L 367,522 L 367,520 L 368,519 L 368,517 L 369,516 L 369,514 L 370,513 L 370,511 L 371,510 L 371,508 L 372,507 L 372,504 L 373,503 L 373,502 L 374,501 L 374,499 L 375,498 L 375,495 L 377,493 L 378,494 L 378,497 L 379,498 L 379,500 L 380,501 L 380,503 L 381,504 L 381,506 L 382,507 L 382,509 L 383,510 L 383,512 L 384,513 L 384,515 L 385,516 L 385,518 L 386,519 L 386,521 L 387,522 L 387,524 L 388,525 L 388,527 L 389,528 L 389,530 L 390,531 L 390,534 L 391,535 L 391,536 L 392,537 L 392,539 L 393,540 L 393,543 L 394,544 L 394,546 L 395,547 L 409,547 L 409,546 L 410,545 L 410,543 L 411,542 L 411,540 L 412,539 L 412,537 L 413,536 L 413,534 L 414,533 L 414,531 L 415,530 L 415,528 L 416,527 L 416,525 L 417,524 L 417,522 L 418,521 L 418,519 L 419,518 L 419,516 L 420,515 L 420,513 L 421,512 L 421,510 L 422,509 L 422,507 L 423,506 L 423,504 L 424,503 L 424,501 L 425,500 L 425,498 L 426,497 L 426,495 L 427,494 L 427,492 L 428,491 L 428,489 L 429,488 L 429,487 L 430,486 L 430,483 L 431,482 L 431,480 L 432,479 L 432,477 L 433,476 L 433,475 L 434,474 L 434,472 L 435,471 L 435,468 L 436,467 L 436,465 L 418,465 L 418,467 L 417,468 L 417,470 L 416,471 L 416,473 L 415,474 L 415,476 L 414,477 L 414,480 L 413,481 L 413,483 L 412,484 L 412,486 L 411,487 L 411,488 L 410,489 L 410,492 L 409,493 L 409,495 L 408,496 L 408,497 L 407,498 L 407,501 L 406,502 L 406,504 L 405,505 L 405,507 L 404,508 L 404,510 L 403,511 L 403,513 L 402,514 L 402,515 L 401,516 L 400,515 L 400,513 L 399,512 L 399,510 L 398,509 L 398,507 L 397,506 L 397,504 L 396,503 L 396,501 L 395,500 L 395,497 L 394,496 L 394,494 L 393,493 L 393,491 L 392,490 L 392,488 L 391,487 L 391,485 L 390,484 L 390,482 L 389,481 L 389,479 L 388,478 L 388,476 L 387,475 L 387,473 L 386,472 L 386,470 L 385,469 L 385,467 L 384,466 L 384,465 L 369,465 L 369,467 L 368,468 L 368,470 L 367,471 L 367,473 L 366,474 L 366,477 L 365,478 L 365,479 L 364,480 L 364,483 L 363,484 L 363,486 L 362,487 L 362,489 L 361,490 L 361,492 L 360,493 L 360,495 L 359,496 L 359,498 L 358,499 L 358,502 L 357,503 L 357,504 L 356,505 L 356,508 L 355,509 L 355,510 L 354,511 L 354,514 L 353,515 L 353,516 L 352,517 L 351,516 L 351,514 L 350,513 L 350,511 L 349,510 L 349,508 L 348,507 L 348,505 L 347,504 L 347,501 L 346,500 L 346,498 L 345,497 L 345,495 L 344,494 L 344,492 L 343,491 L 343,489 L 342,488 L 342,486 L 341,485 L 341,483 L 340,482 L 340,479 L 339,478 L 339,476 L 338,475 L 338,473 L 337,472 L 337,470 L 336,469 L 336,466 L 335,465 Z" fill="black"/>
  <path d="M 979,463 L 978,464 L 975,464 L 974,465 L 972,465 L 971,466 L 969,466 L 968,467 L 967,467 L 966,468 L 965,468 L 961,472 L 960,472 L 957,475 L 957,476 L 954,479 L 954,480 L 952,482 L 952,483 L 951,484 L 951,485 L 950,486 L 950,488 L 949,489 L 949,491 L 948,492 L 948,495 L 947,496 L 947,515 L 948,516 L 947,517 L 948,518 L 948,520 L 949,521 L 949,523 L 950,524 L 950,526 L 951,527 L 951,528 L 952,529 L 952,530 L 954,532 L 954,533 L 958,537 L 958,538 L 959,539 L 960,539 L 963,542 L 964,542 L 966,544 L 967,544 L 968,545 L 969,545 L 970,546 L 972,546 L 973,547 L 975,547 L 976,548 L 981,548 L 982,549 L 993,549 L 994,548 L 999,548 L 1000,547 L 1002,547 L 1003,546 L 1005,546 L 1006,545 L 1007,545 L 1008,544 L 1009,544 L 1010,543 L 1011,543 L 1012,542 L 1013,542 L 1016,539 L 1017,539 L 1019,537 L 1020,537 L 1022,535 L 1022,534 L 1021,533 L 1021,532 L 1020,531 L 1020,530 L 1019,529 L 1019,528 L 1018,527 L 1018,526 L 1016,524 L 1016,523 L 1015,522 L 1015,521 L 1014,520 L 1014,519 L 1012,521 L 1011,521 L 1009,523 L 1008,523 L 1007,524 L 1006,524 L 1004,526 L 1003,526 L 1002,527 L 1001,527 L 1000,528 L 999,528 L 998,529 L 997,529 L 996,530 L 994,530 L 993,531 L 992,531 L 991,532 L 985,532 L 984,531 L 980,531 L 979,530 L 978,530 L 977,529 L 976,529 L 975,528 L 974,528 L 973,527 L 973,526 L 972,526 L 970,524 L 970,523 L 968,521 L 968,520 L 967,519 L 967,518 L 966,517 L 966,515 L 965,514 L 965,510 L 966,509 L 988,509 L 989,510 L 1023,510 L 1023,489 L 1022,488 L 1022,487 L 1021,486 L 1021,485 L 1020,484 L 1020,483 L 1019,482 L 1019,481 L 1018,480 L 1018,479 L 1016,477 L 1016,476 L 1010,470 L 1009,470 L 1007,468 L 1006,468 L 1005,467 L 1004,467 L 1003,466 L 1002,466 L 1001,465 L 999,465 L 998,464 L 996,464 L 995,463 L 994,464 L 993,463 Z" fill="black"/>
  <path d="M 829,463 L 828,464 L 825,464 L 824,465 L 822,465 L 821,466 L 820,466 L 819,467 L 817,467 L 815,469 L 814,469 L 804,479 L 804,480 L 802,482 L 802,483 L 801,484 L 801,486 L 800,487 L 800,488 L 799,489 L 799,491 L 798,492 L 798,496 L 797,497 L 797,514 L 798,515 L 798,519 L 799,520 L 799,522 L 800,523 L 800,524 L 801,525 L 801,526 L 802,527 L 802,529 L 804,531 L 804,532 L 807,535 L 807,536 L 811,540 L 812,540 L 815,543 L 816,543 L 817,544 L 818,544 L 819,545 L 820,545 L 821,546 L 823,546 L 824,547 L 826,547 L 827,548 L 831,548 L 832,549 L 843,549 L 844,548 L 850,548 L 851,547 L 853,547 L 854,546 L 855,546 L 856,545 L 857,545 L 858,544 L 859,544 L 860,543 L 861,543 L 864,540 L 865,540 L 869,536 L 869,535 L 872,532 L 872,531 L 874,529 L 874,528 L 875,527 L 875,525 L 876,524 L 876,523 L 877,522 L 877,520 L 878,519 L 878,515 L 879,514 L 879,498 L 878,497 L 878,492 L 877,491 L 877,489 L 876,488 L 876,487 L 875,486 L 875,485 L 874,484 L 874,483 L 873,482 L 873,481 L 872,480 L 872,479 L 868,475 L 868,474 L 866,472 L 865,472 L 862,469 L 861,469 L 859,467 L 858,467 L 857,466 L 856,466 L 855,465 L 853,465 L 852,464 L 849,464 L 848,463 Z" fill="black"/>
  <path d="M 651,463 L 650,464 L 647,464 L 646,465 L 644,465 L 643,466 L 640,466 L 638,468 L 637,468 L 636,469 L 635,469 L 634,470 L 633,470 L 631,472 L 630,472 L 626,476 L 626,477 L 623,480 L 623,481 L 622,482 L 622,483 L 621,484 L 621,485 L 620,486 L 620,487 L 619,488 L 619,490 L 618,491 L 618,493 L 617,494 L 617,515 L 618,516 L 618,520 L 619,521 L 619,523 L 620,524 L 620,526 L 621,527 L 621,528 L 622,529 L 622,530 L 623,531 L 623,532 L 624,533 L 624,534 L 631,541 L 632,541 L 634,543 L 635,543 L 637,545 L 638,545 L 639,546 L 641,546 L 642,547 L 644,547 L 645,548 L 649,548 L 650,549 L 665,549 L 666,548 L 669,548 L 670,547 L 672,547 L 673,546 L 674,546 L 675,545 L 676,546 L 676,585 L 695,585 L 696,584 L 696,567 L 695,566 L 695,465 L 680,465 L 680,466 L 679,467 L 677,465 L 675,465 L 674,464 L 671,464 L 670,463 Z" fill="black"/>
  <path d="M 570,463 L 569,464 L 566,464 L 565,465 L 564,465 L 563,466 L 562,466 L 561,467 L 560,467 L 558,469 L 557,469 L 554,472 L 554,473 L 552,475 L 552,476 L 551,477 L 551,478 L 550,479 L 550,483 L 549,484 L 549,491 L 550,492 L 550,495 L 551,496 L 551,497 L 552,498 L 552,499 L 556,503 L 556,504 L 557,504 L 560,507 L 561,507 L 562,508 L 563,508 L 565,510 L 567,510 L 568,511 L 569,511 L 570,512 L 572,512 L 573,513 L 574,513 L 575,514 L 577,514 L 578,515 L 579,515 L 580,516 L 581,516 L 582,517 L 583,517 L 584,518 L 585,518 L 587,520 L 587,521 L 588,522 L 588,527 L 587,528 L 587,529 L 584,532 L 582,532 L 581,533 L 570,533 L 569,532 L 566,532 L 565,531 L 564,531 L 563,530 L 562,530 L 561,529 L 560,529 L 558,527 L 557,527 L 555,525 L 554,525 L 554,526 L 553,527 L 553,528 L 552,529 L 552,531 L 551,532 L 551,533 L 550,534 L 550,535 L 549,536 L 549,537 L 548,538 L 548,539 L 547,540 L 549,542 L 550,542 L 552,544 L 553,544 L 554,545 L 555,545 L 556,546 L 558,546 L 559,547 L 561,547 L 562,548 L 565,548 L 566,549 L 567,548 L 568,549 L 583,549 L 584,548 L 589,548 L 590,547 L 592,547 L 593,546 L 594,546 L 595,545 L 596,545 L 597,544 L 598,544 L 601,541 L 602,541 L 602,540 L 604,538 L 604,537 L 606,535 L 606,533 L 607,532 L 607,528 L 608,527 L 608,521 L 607,520 L 607,517 L 606,516 L 606,515 L 605,514 L 605,513 L 602,510 L 602,509 L 600,507 L 599,507 L 597,505 L 596,505 L 594,503 L 593,503 L 592,502 L 591,502 L 590,501 L 589,501 L 588,500 L 586,500 L 585,499 L 584,499 L 583,498 L 581,498 L 580,497 L 579,497 L 578,496 L 576,496 L 575,495 L 574,495 L 572,493 L 571,493 L 568,490 L 568,489 L 567,488 L 567,484 L 571,480 L 572,480 L 573,479 L 575,479 L 576,478 L 577,479 L 578,478 L 579,478 L 580,479 L 585,479 L 586,480 L 588,480 L 589,481 L 590,481 L 591,482 L 592,482 L 593,483 L 594,483 L 595,484 L 596,484 L 596,483 L 597,482 L 597,481 L 598,480 L 598,479 L 599,478 L 599,477 L 600,476 L 600,475 L 601,474 L 601,473 L 602,472 L 602,471 L 603,470 L 603,468 L 602,468 L 601,467 L 600,467 L 599,466 L 597,466 L 596,465 L 594,465 L 593,464 L 590,464 L 589,463 Z" fill="black"/>
  <path d="M 503,463 L 502,464 L 499,464 L 498,465 L 497,465 L 496,466 L 495,466 L 494,467 L 493,467 L 490,470 L 489,470 L 487,472 L 487,473 L 485,475 L 485,476 L 484,477 L 484,478 L 483,479 L 483,483 L 482,484 L 482,489 L 483,490 L 483,495 L 484,496 L 484,497 L 485,498 L 485,499 L 488,502 L 488,503 L 489,504 L 490,504 L 493,507 L 494,507 L 496,509 L 497,509 L 498,510 L 499,510 L 500,511 L 502,511 L 503,512 L 504,512 L 505,513 L 506,513 L 507,514 L 509,514 L 510,515 L 511,515 L 512,516 L 514,516 L 515,517 L 516,517 L 520,521 L 520,522 L 521,523 L 521,526 L 520,527 L 520,528 L 516,532 L 515,532 L 514,533 L 509,533 L 508,534 L 507,533 L 502,533 L 501,532 L 499,532 L 498,531 L 496,531 L 495,530 L 494,530 L 492,528 L 491,528 L 488,525 L 487,525 L 487,526 L 486,527 L 486,528 L 485,529 L 485,530 L 484,531 L 484,532 L 483,533 L 483,534 L 482,535 L 482,536 L 481,537 L 481,539 L 480,540 L 483,543 L 484,543 L 486,545 L 488,545 L 489,546 L 491,546 L 492,547 L 494,547 L 495,548 L 500,548 L 501,549 L 516,549 L 517,548 L 522,548 L 523,547 L 525,547 L 526,546 L 527,546 L 528,545 L 529,545 L 530,544 L 531,544 L 537,538 L 537,537 L 538,536 L 538,535 L 539,534 L 539,532 L 540,531 L 540,518 L 539,517 L 539,515 L 537,513 L 537,512 L 530,505 L 529,505 L 527,503 L 526,503 L 525,502 L 524,502 L 523,501 L 522,501 L 521,500 L 520,500 L 519,499 L 516,499 L 515,498 L 514,498 L 513,497 L 512,497 L 511,496 L 509,496 L 508,495 L 507,495 L 506,494 L 505,494 L 500,489 L 500,484 L 504,480 L 505,480 L 506,479 L 509,479 L 510,478 L 512,478 L 513,479 L 518,479 L 519,480 L 521,480 L 522,481 L 523,481 L 524,482 L 525,482 L 526,483 L 527,483 L 528,484 L 529,484 L 529,483 L 530,482 L 530,481 L 531,480 L 531,479 L 532,478 L 532,477 L 533,476 L 533,475 L 534,474 L 534,473 L 535,472 L 535,471 L 536,470 L 536,468 L 535,468 L 534,467 L 533,467 L 532,466 L 530,466 L 529,465 L 527,465 L 526,464 L 523,464 L 522,463 Z" fill="black"/>
  <path d="M 905,436 L 904,437 L 902,437 L 902,464 L 901,465 L 884,465 L 884,482 L 901,482 L 902,483 L 902,529 L 903,530 L 903,534 L 904,535 L 904,536 L 905,537 L 905,539 L 906,540 L 906,541 L 910,545 L 911,545 L 912,546 L 913,546 L 914,547 L 915,547 L 916,548 L 919,548 L 920,549 L 934,549 L 935,548 L 938,548 L 939,547 L 941,547 L 942,546 L 942,542 L 941,541 L 941,535 L 940,534 L 940,529 L 939,529 L 938,530 L 937,530 L 936,531 L 932,531 L 931,532 L 927,532 L 926,531 L 924,531 L 921,528 L 921,526 L 920,525 L 920,483 L 921,482 L 941,482 L 941,465 L 921,465 L 920,464 L 920,436 L 909,436 L 908,437 L 907,436 Z" fill="black"/>
  <path d="M 448,429 L 448,449 L 470,449 L 470,429 Z" fill="black"/>
  <path d="M 271,423 L 270,424 L 264,424 L 263,425 L 261,425 L 260,426 L 258,426 L 257,427 L 256,427 L 255,428 L 254,428 L 253,429 L 252,429 L 249,432 L 248,432 L 246,434 L 246,435 L 243,438 L 243,439 L 241,441 L 241,442 L 240,443 L 240,445 L 239,446 L 239,449 L 238,450 L 238,465 L 239,466 L 239,468 L 240,469 L 240,471 L 241,472 L 241,474 L 242,475 L 242,476 L 244,478 L 244,479 L 250,485 L 251,485 L 253,487 L 254,487 L 255,488 L 256,488 L 257,489 L 258,489 L 259,490 L 260,490 L 261,491 L 262,491 L 263,492 L 264,492 L 265,493 L 266,493 L 267,494 L 268,494 L 269,495 L 271,495 L 272,496 L 273,496 L 274,497 L 275,497 L 276,498 L 278,498 L 280,500 L 281,500 L 282,501 L 283,501 L 285,503 L 286,503 L 288,505 L 288,506 L 290,508 L 290,509 L 291,510 L 291,513 L 292,514 L 292,518 L 291,519 L 291,521 L 290,522 L 290,523 L 289,524 L 289,525 L 285,529 L 284,529 L 283,530 L 282,530 L 281,531 L 279,531 L 278,532 L 265,532 L 264,531 L 261,531 L 260,530 L 258,530 L 257,529 L 256,529 L 255,528 L 254,528 L 253,527 L 252,527 L 247,522 L 246,522 L 245,521 L 245,520 L 244,520 L 244,521 L 242,523 L 242,524 L 241,525 L 241,526 L 240,527 L 240,528 L 239,529 L 239,530 L 237,532 L 237,533 L 236,534 L 236,535 L 235,536 L 235,537 L 239,541 L 240,541 L 242,543 L 243,543 L 244,544 L 245,544 L 246,545 L 247,545 L 248,546 L 250,546 L 251,547 L 253,547 L 254,548 L 258,548 L 259,549 L 282,549 L 283,548 L 286,548 L 287,547 L 289,547 L 290,546 L 292,546 L 293,545 L 294,545 L 295,544 L 296,544 L 298,542 L 299,542 L 306,535 L 306,534 L 308,532 L 308,531 L 309,530 L 309,529 L 310,528 L 310,526 L 311,525 L 311,522 L 312,521 L 312,509 L 311,508 L 311,505 L 310,504 L 310,502 L 309,501 L 309,499 L 307,497 L 307,496 L 304,493 L 304,492 L 303,492 L 298,487 L 297,487 L 295,485 L 294,485 L 293,484 L 292,484 L 290,482 L 288,482 L 287,481 L 286,481 L 285,480 L 284,480 L 283,479 L 282,479 L 281,478 L 280,478 L 279,477 L 277,477 L 276,476 L 275,476 L 274,475 L 273,475 L 272,474 L 271,474 L 269,472 L 268,472 L 267,471 L 266,471 L 261,466 L 261,465 L 260,464 L 260,463 L 259,462 L 259,457 L 260,456 L 260,453 L 261,452 L 261,451 L 262,450 L 262,449 L 268,443 L 270,443 L 271,442 L 273,442 L 274,441 L 283,441 L 284,442 L 288,442 L 289,443 L 290,443 L 291,444 L 293,444 L 295,446 L 296,446 L 301,451 L 303,449 L 303,448 L 304,447 L 304,446 L 305,445 L 305,444 L 306,443 L 306,442 L 307,441 L 307,440 L 308,439 L 308,438 L 309,437 L 309,436 L 311,434 L 308,431 L 307,431 L 306,430 L 305,430 L 304,429 L 303,429 L 302,428 L 301,428 L 300,427 L 299,427 L 298,426 L 296,426 L 295,425 L 291,425 L 290,424 L 285,424 L 284,423 Z" fill="black"/>
  <path d="M 98,397 L 97,398 L 93,398 L 92,399 L 88,399 L 87,400 L 84,400 L 83,401 L 81,401 L 80,402 L 78,402 L 77,403 L 75,403 L 74,404 L 72,404 L 71,405 L 70,405 L 69,406 L 68,406 L 67,407 L 66,407 L 65,408 L 64,408 L 63,409 L 62,409 L 60,411 L 59,411 L 58,412 L 57,412 L 55,414 L 54,414 L 51,417 L 50,417 L 44,423 L 43,423 L 41,425 L 41,426 L 35,432 L 35,433 L 32,436 L 32,437 L 30,439 L 30,440 L 28,442 L 28,443 L 27,444 L 27,445 L 26,446 L 26,447 L 25,448 L 25,449 L 23,451 L 23,453 L 22,454 L 22,455 L 21,456 L 21,458 L 20,459 L 20,461 L 19,462 L 19,463 L 18,464 L 18,467 L 17,468 L 17,472 L 16,473 L 16,475 L 15,476 L 15,503 L 16,504 L 16,509 L 17,510 L 17,513 L 18,514 L 18,517 L 19,518 L 19,519 L 20,520 L 20,522 L 21,523 L 21,525 L 22,526 L 22,527 L 23,528 L 23,529 L 24,530 L 24,531 L 25,532 L 25,533 L 26,534 L 26,535 L 27,536 L 27,537 L 28,538 L 28,539 L 30,541 L 30,542 L 32,544 L 32,545 L 35,548 L 35,549 L 51,565 L 52,565 L 55,568 L 56,568 L 57,569 L 58,569 L 60,571 L 61,571 L 62,572 L 63,572 L 64,573 L 65,573 L 66,574 L 67,574 L 69,576 L 71,576 L 72,577 L 73,577 L 74,578 L 76,578 L 77,579 L 79,579 L 80,580 L 82,580 L 83,581 L 86,581 L 87,582 L 91,582 L 92,583 L 101,583 L 102,584 L 116,584 L 117,583 L 123,583 L 124,582 L 128,582 L 129,581 L 132,581 L 133,580 L 136,580 L 137,579 L 139,579 L 140,578 L 141,578 L 142,577 L 144,577 L 145,576 L 146,576 L 147,575 L 148,575 L 149,574 L 150,574 L 151,573 L 152,573 L 153,572 L 154,572 L 155,571 L 156,571 L 158,569 L 159,569 L 160,568 L 161,568 L 165,564 L 166,564 L 170,560 L 171,560 L 175,556 L 175,555 L 181,549 L 181,548 L 184,545 L 184,544 L 186,542 L 186,541 L 188,539 L 188,538 L 189,537 L 189,536 L 190,535 L 190,534 L 191,533 L 191,532 L 192,531 L 192,530 L 193,529 L 193,528 L 194,527 L 194,525 L 195,524 L 195,523 L 196,522 L 196,519 L 197,518 L 197,516 L 198,515 L 198,512 L 199,511 L 199,508 L 200,507 L 200,499 L 201,498 L 201,485 L 200,484 L 200,476 L 199,475 L 200,474 L 199,473 L 199,471 L 198,470 L 198,467 L 197,466 L 197,463 L 196,462 L 196,460 L 195,459 L 195,457 L 194,456 L 194,455 L 193,454 L 193,452 L 192,451 L 192,450 L 191,449 L 191,448 L 190,447 L 190,446 L 188,444 L 188,443 L 187,442 L 187,441 L 185,439 L 185,438 L 183,436 L 183,435 L 180,432 L 180,431 L 167,418 L 166,418 L 162,414 L 161,414 L 159,412 L 158,412 L 157,411 L 156,411 L 155,410 L 154,410 L 152,408 L 151,408 L 150,407 L 149,407 L 148,406 L 147,406 L 146,405 L 145,405 L 144,404 L 142,404 L 141,403 L 139,403 L 138,402 L 137,402 L 136,401 L 133,401 L 132,400 L 129,400 L 128,399 L 125,399 L 124,398 L 118,398 L 117,397 Z" fill="black"/>
</svg>